# xmcd
# Track frame offsets:
# 150
# 20348
# 36878
# 51705
# 79785
# 100390
# 119775
# 146425
# 166140
# 186043
# 206913
# 236368
# 257655
#
# Disc length: 3722 seconds
# Revision: 0
# Processed by: cddbd v1.4PL0 Copyright (c) Steve Scherf et al.
# Submitted via: VisiTrax 2.9.5.181 - For more info visit www.synapsa.com
#
DISCID=b80e880d
DTITLE=Varis - Pain It Blue - The Songs Of The Rolling Stones
DYEAR=1997
DGENRE=Blues
TTITLE0=Alvin "Youngblood" Hart - Moolinght Mile
TTITLE1=Alvin "Youngblood" Hart - Sway
TTITLE2=Bobby Womack - It's All Over Now
TTITLE3=Clarence "Gatemouth" Brown and Larry McCray - Ventilator Blues
TTITLE4=Joe Louis Walker - Heart Of Stone
TTITLE5=Johnny Copeland - Tumblin' Dice
TTITLE6=Junior Wells - (I Cn't Get No) Satisfaction
TTITLE7=Larry McCray - Midnight Rambler
TTITLE8=Lucky Peterson - Under My Thumb
TTITLE9=Luther Allison - You Can't Always Get What You Want
TTITLE10=Otis Clay - Wild Horses
TTITLE11=Taj Mahal and James Cotton - Honky Tonk Women
TTITLE12=Wendell Holmes - Beast Of Burden
EXTD=
EXTT0=
EXTT1=
EXTT2=
EXTT3=
EXTT4=
EXTT5=
EXTT6=
EXTT7=
EXTT8=
EXTT9=
EXTT10=
EXTT11=
EXTT12=
PLAYORDER=
